G75*
%MOIN*%
%OFA0B0*%
%FSLAX25Y25*%
%IPPOS*%
%LPD*%
%AMOC8*
5,1,8,0,0,1.08239X$1,22.5*
%
%ADD10R,0.06500X0.06500*%
%ADD11C,0.06500*%
%ADD12C,0.07600*%
%ADD13R,0.05937X0.05937*%
%ADD14C,0.05937*%
%ADD15C,0.01000*%
%ADD16C,0.01600*%
D10*
X0026800Y0013167D03*
X0086800Y0073167D03*
X0136800Y0103167D03*
X0026800Y0103167D03*
X0136800Y0013167D03*
D11*
X0146800Y0013167D03*
X0156800Y0013167D03*
X0166800Y0013167D03*
X0086800Y0043167D03*
X0086800Y0053167D03*
X0086800Y0063167D03*
X0056800Y0103167D03*
X0046800Y0103167D03*
X0036800Y0103167D03*
X0146800Y0103167D03*
X0156800Y0103167D03*
X0166800Y0103167D03*
X0056800Y0013167D03*
X0046800Y0013167D03*
X0036800Y0013167D03*
D12*
X0036800Y0013167D03*
X0046800Y0013167D03*
X0056800Y0013167D03*
X0066800Y0013167D03*
X0076800Y0013167D03*
X0086800Y0013167D03*
X0096800Y0013167D03*
X0106800Y0013167D03*
X0116800Y0013167D03*
X0126800Y0013167D03*
X0136800Y0013167D03*
X0146800Y0013167D03*
X0156800Y0013167D03*
X0166800Y0013167D03*
X0026800Y0013167D03*
X0026800Y0103167D03*
X0036800Y0103167D03*
X0046800Y0103167D03*
X0056800Y0103167D03*
X0066800Y0103167D03*
X0076800Y0103167D03*
X0086800Y0103167D03*
X0096800Y0103167D03*
X0106800Y0103167D03*
X0116800Y0103167D03*
X0126800Y0103167D03*
X0136800Y0103167D03*
X0146800Y0103167D03*
X0156800Y0103167D03*
X0166800Y0103167D03*
D13*
X0086800Y0073167D03*
D14*
X0086800Y0063167D03*
X0086800Y0053167D03*
X0086800Y0043167D03*
D15*
X0110550Y0019417D01*
X0140550Y0019417D01*
X0146800Y0013167D01*
X0148050Y0021917D02*
X0156800Y0013167D01*
X0166800Y0013167D02*
X0155550Y0024417D01*
X0141800Y0024417D01*
X0098050Y0068167D01*
X0081800Y0068167D01*
X0046800Y0103167D01*
X0086800Y0053167D02*
X0118050Y0021917D01*
X0148050Y0021917D01*
D16*
X0191800Y0008167D02*
X0001800Y0008167D01*
X0001800Y0108167D01*
X0191800Y0108167D01*
X0191800Y0083167D01*
X0141800Y0083167D01*
X0141800Y0033167D01*
X0191800Y0033167D01*
X0191800Y0008167D01*
M02*
