G75*
%MOIN*%
%OFA0B0*%
%FSLAX25Y25*%
%IPPOS*%
%LPD*%
%AMOC8*
5,1,8,0,0,1.08239X$1,22.5*
%
%ADD10R,0.07300X0.07300*%
%ADD11C,0.07300*%
%ADD12C,0.08400*%
%ADD13C,0.13398*%
%ADD14R,0.06737X0.06737*%
%ADD15C,0.06737*%
%ADD16C,0.12611*%
D10*
X0026800Y0013167D03*
X0086800Y0073167D03*
X0136800Y0103167D03*
X0026800Y0103167D03*
X0136800Y0013167D03*
D11*
X0146800Y0013167D03*
X0156800Y0013167D03*
X0166800Y0013167D03*
X0086800Y0043167D03*
X0086800Y0053167D03*
X0086800Y0063167D03*
X0056800Y0103167D03*
X0046800Y0103167D03*
X0036800Y0103167D03*
X0146800Y0103167D03*
X0156800Y0103167D03*
X0166800Y0103167D03*
X0056800Y0013167D03*
X0046800Y0013167D03*
X0036800Y0013167D03*
D12*
X0026800Y0013167D03*
X0036800Y0013167D03*
X0046800Y0013167D03*
X0056800Y0013167D03*
X0066800Y0013167D03*
X0076800Y0013167D03*
X0086800Y0013167D03*
X0096800Y0013167D03*
X0106800Y0013167D03*
X0116800Y0013167D03*
X0126800Y0013167D03*
X0136800Y0013167D03*
X0146800Y0013167D03*
X0156800Y0013167D03*
X0166800Y0013167D03*
X0166800Y0103167D03*
X0156800Y0103167D03*
X0146800Y0103167D03*
X0136800Y0103167D03*
X0126800Y0103167D03*
X0116800Y0103167D03*
X0106800Y0103167D03*
X0096800Y0103167D03*
X0086800Y0103167D03*
X0076800Y0103167D03*
X0066800Y0103167D03*
X0056800Y0103167D03*
X0046800Y0103167D03*
X0036800Y0103167D03*
X0026800Y0103167D03*
D13*
X0011800Y0098167D03*
X0011800Y0018167D03*
X0181800Y0018167D03*
X0181800Y0098167D03*
D14*
X0086800Y0073167D03*
D15*
X0086800Y0063167D03*
X0086800Y0053167D03*
X0086800Y0043167D03*
D16*
X0121800Y0068167D03*
M02*
