%
M48
M72
T01C0.03150
T02C0.03500
T03C0.03937
T04C0.11811
T05C0.12598
%
T01
X26800Y13167
X36800Y13167
X46800Y13167
X56800Y13167
X66800Y13167
X76800Y13167
X86800Y13167
X96800Y13167
X106800Y13167
X116800Y13167
X126800Y13167
X136800Y13167
X146800Y13167
X156800Y13167
X166800Y13167
X166800Y103167
X156800Y103167
X146800Y103167
X136800Y103167
X126800Y103167
X116800Y103167
X106800Y103167
X96800Y103167
X86800Y103167
X76800Y103167
X66800Y103167
X56800Y103167
X46800Y103167
X36800Y103167
X26800Y103167
T02
X26800Y103167
X36800Y103167
X46800Y103167
X56800Y103167
X86800Y73167
X86800Y63167
X86800Y53167
X86800Y43167
X56800Y13167
X46800Y13167
X36800Y13167
X26800Y13167
X136800Y13167
X146800Y13167
X156800Y13167
X166800Y13167
X166800Y103167
X156800Y103167
X146800Y103167
X136800Y103167
T03
X86800Y73167
X86800Y63167
X86800Y53167
X86800Y43167
T04
X121800Y68167
T05
X181800Y98167
X181800Y18167
X11800Y18167
X11800Y98167
M30
